<svg width="891" height="372" viewBox="0 0 891 372" fill="none" xmlns="http://www.w3.org/2000/svg">
<path d="M12.6 314C10.6 314 9.6 313 9.6 311C9.6 309 10.6 308 12.6 308C17.8 308 21.7333 307.733 24.4 307.2C27.2 306.533 29.1333 305.333 30.2 303.6C31.2667 301.867 31.8 299.267 31.8 295.8V186.6C31.8 183.4 31.3333 180.933 30.4 179.2C29.4667 177.467 27.6 176.333 24.8 175.8C22.1333 175.133 18 174.8 12.4 174.8C10.5333 174.8 9.6 173.8 9.6 171.8C9.6 169.8 10.5333 168.8 12.4 168.8C13.4667 168.8 16.6 168.933 21.8 169.2C27 169.333 34.0667 169.4 43 169.4C54.0667 169.4 63.2667 169.333 70.6 169.2C77.9333 168.933 84 168.8 88.8 168.8C98.5333 168.8 107.133 170.333 114.6 173.4C122.067 176.467 127.867 181 132 187C136.267 192.867 138.4 200.067 138.4 208.6C138.4 221 134.467 230.667 126.6 237.6C118.867 244.4 107.267 247.8 91.8 247.8H56.6C55 247.8 54.2 248.667 54.2 250.4V295.8C54.2 300.867 55.8 304.2 59 305.8C62.3333 307.267 68.0667 308 76.2 308C78.0667 308 79 309 79 311C79 313 78.0667 314 76.2 314C74.8667 314 71.3333 313.933 65.6 313.8C59.8667 313.533 52.3333 313.4 43 313.4C34.0667 313.4 27.0667 313.533 22 313.8C17.0667 313.933 13.9333 314 12.6 314ZM56.6 241H84.8C93.6 241 100.467 238.067 105.4 232.2C110.333 226.2 112.8 218.333 112.8 208.6C112.8 202.467 111.8 196.867 109.8 191.8C107.933 186.733 104.733 182.733 100.2 179.8C95.6667 176.733 89.4 175.2 81.4 175.2H58.4C57.2 175.2 56.2 175.467 55.4 176C54.6 176.533 54.2 177.667 54.2 179.4V238.4C54.2 238.933 54.4 239.533 54.8 240.2C55.3333 240.733 55.9333 241 56.6 241ZM192.175 316.4C183.242 316.4 175.308 314.267 168.375 310C161.575 305.733 156.242 299.933 152.375 292.6C148.508 285.267 146.575 277 146.575 267.8C146.575 258.6 148.508 250.4 152.375 243.2C156.242 235.867 161.575 230.133 168.375 226C175.308 221.733 183.242 219.6 192.175 219.6C201.242 219.6 209.175 221.733 215.975 226C222.775 230.133 228.108 235.867 231.975 243.2C235.842 250.4 237.775 258.6 237.775 267.8C237.775 277 235.842 285.267 231.975 292.6C228.108 299.933 222.775 305.733 215.975 310C209.175 314.267 201.242 316.4 192.175 316.4ZM192.175 309.8C200.175 309.8 206.042 305.933 209.775 298.2C213.508 290.467 215.375 280.333 215.375 267.8C215.375 255.4 213.508 245.4 209.775 237.8C206.042 230.067 200.175 226.2 192.175 226.2C184.175 226.2 178.308 230.067 174.575 237.8C170.842 245.4 168.975 255.4 168.975 267.8C168.975 280.333 170.842 290.467 174.575 298.2C178.308 305.933 184.175 309.8 192.175 309.8ZM254.625 314C252.758 314 251.825 312.867 251.825 310.6C251.825 308.467 252.758 307.4 254.625 307.4C260.092 307.4 264.025 306.533 266.425 304.8C268.958 302.933 270.225 299.733 270.225 295.2V239.2C270.225 236.4 269.892 234.267 269.225 232.8C268.692 231.2 267.492 230.333 265.625 230.2C264.958 230.067 263.758 229.933 262.025 229.8C260.292 229.533 258.558 229.333 256.825 229.2C255.225 229.067 254.092 228.933 253.425 228.8C251.558 228.533 250.625 227.467 250.625 225.6C250.625 223.6 251.625 222.467 253.625 222.2C254.025 222.2 255.625 222.2 258.425 222.2C261.358 222.2 264.625 222.2 268.225 222.2C271.958 222.067 275.358 222 278.425 222C281.492 222 283.425 222 284.225 222C287.425 222 289.025 223.667 289.025 227V238C289.025 238.4 289.225 238.667 289.625 238.8C290.025 238.933 290.425 238.733 290.825 238.2C292.958 235.267 295.425 232.4 298.225 229.6C301.158 226.8 304.425 224.467 308.025 222.6C311.758 220.6 315.825 219.6 320.225 219.6C327.425 219.6 332.825 221.133 336.425 224.2C340.025 227.267 341.825 231.2 341.825 236C341.825 238.667 340.758 241.467 338.625 244.4C336.625 247.2 333.492 248.6 329.225 248.6C324.558 248.6 321.358 247.4 319.625 245C317.892 242.467 317.025 240.067 317.025 237.8C317.025 235.133 316.692 233.2 316.025 232C315.492 230.8 314.225 230.2 312.225 230.2C308.758 230.2 305.292 231.933 301.825 235.4C298.358 238.733 295.492 243.067 293.225 248.4C291.092 253.6 290.025 259.067 290.025 264.8V294.8C290.025 299.467 291.492 302.733 294.425 304.6C297.492 306.467 301.292 307.4 305.825 307.4C307.958 307.4 309.025 308.467 309.025 310.6C309.025 312.867 307.958 314 305.825 314C304.492 314 301.625 313.933 297.225 313.8C292.825 313.533 287.092 313.4 280.025 313.4C274.158 313.4 268.825 313.533 264.025 313.8C259.225 313.933 256.092 314 254.625 314ZM388.811 316.4C385.344 316.4 382.011 315.867 378.811 314.8C375.611 313.733 373.011 311.867 371.011 309.2C369.011 306.4 368.011 302.667 368.011 298V231.2C368.011 230.133 367.411 229.6 366.211 229.6H354.411C352.411 229.6 351.411 228.6 351.411 226.6V225.8C351.411 224.867 351.678 224.2 352.211 223.8C352.878 223.267 353.611 222.933 354.411 222.8C361.744 220.4 367.344 216.533 371.211 211.2C375.078 205.733 377.478 198.333 378.411 189C378.411 186.867 379.478 185.8 381.611 185.8H384.811C385.611 185.8 386.344 186.133 387.011 186.8C387.678 187.333 388.011 188.067 388.011 189V220.2C388.011 221.4 388.544 222 389.611 222H411.611C412.544 222 413.278 222.333 413.811 223C414.344 223.533 414.611 224.133 414.611 224.8V226.6C414.611 228.6 413.611 229.6 411.611 229.6H389.611C388.544 229.6 388.011 230.133 388.011 231.2V291.2C388.011 298.533 391.744 302.2 399.211 302.2C402.678 302.2 405.744 301.133 408.411 299C411.078 296.867 413.144 294.4 414.611 291.6C415.278 290.533 416.011 290 416.811 290C417.611 289.867 418.478 290.067 419.411 290.6C421.011 291.667 421.344 293.267 420.411 295.4C418.278 300.733 414.611 305.6 409.411 310C404.344 314.267 397.478 316.4 388.811 316.4ZM433.117 314C431.384 314 430.517 312.933 430.517 310.8C430.517 308.933 431.384 308 433.117 308C440.717 308 445.851 307.133 448.517 305.4C451.184 303.667 452.517 300.467 452.517 295.8V186.6C452.517 183.933 452.117 181.733 451.317 180C450.517 178.267 448.717 176.933 445.917 176C443.117 175.067 438.651 174.6 432.517 174.6C430.784 174.6 429.917 173.6 429.917 171.6C429.917 170.933 430.117 170.333 430.517 169.8C431.051 169.133 431.717 168.8 432.517 168.8C433.584 168.8 439.317 168.867 449.717 169C460.251 169.133 474.384 169.2 492.117 169.2C508.917 169.2 521.984 169.133 531.317 169C540.784 168.867 545.984 168.8 546.917 168.8C550.384 168.8 552.184 170.333 552.317 173.4C552.317 174.333 552.384 176.4 552.517 179.6C552.784 182.667 552.984 186 553.117 189.6C553.251 193.2 553.384 196.4 553.517 199.2C553.651 202 553.717 203.667 553.717 204.2C553.717 204.733 553.584 205.267 553.317 205.8C553.051 206.333 552.384 206.667 551.317 206.8C550.517 206.8 549.784 206.733 549.117 206.6C548.584 206.333 548.117 205.667 547.717 204.6C546.784 202.333 545.451 199.6 543.717 196.4C542.117 193.067 540.051 189.8 537.517 186.6C535.117 183.4 532.117 180.733 528.517 178.6C525.051 176.333 520.851 175.2 515.917 175.2H479.117C476.317 175.2 474.917 176.6 474.917 179.4V233C474.917 234.6 475.784 235.4 477.517 235.4H491.517C496.984 235.4 501.184 234.333 504.117 232.2C507.051 229.933 509.251 227.267 510.717 224.2C512.317 221.133 513.651 218.267 514.717 215.6C514.984 214.8 515.317 214.2 515.717 213.8C516.117 213.267 516.784 213 517.717 213C519.451 213 520.317 214 520.317 216C520.317 216.933 520.251 218.733 520.117 221.4C520.117 224.067 520.051 227 519.917 230.2C519.917 233.4 519.917 236.333 519.917 239C519.917 241.4 519.917 244.333 519.917 247.8C520.051 251.133 520.117 254.267 520.117 257.2C520.117 260.133 520.117 262.067 520.117 263C520.117 263.667 519.917 264.333 519.517 265C519.251 265.667 518.651 266 517.717 266C516.784 266 516.117 265.733 515.717 265.2C515.317 264.667 514.917 263.933 514.517 263C513.584 260.6 512.384 257.8 510.917 254.6C509.451 251.267 507.251 248.4 504.317 246C501.384 243.467 497.117 242.2 491.517 242.2H477.517C476.851 242.2 476.251 242.533 475.717 243.2C475.184 243.733 474.917 244.333 474.917 245V295.8C474.917 298.867 475.451 301.333 476.517 303.2C477.584 304.933 479.651 306.2 482.717 307C485.784 307.667 490.317 308 496.317 308C498.051 308 498.917 308.933 498.917 310.8C498.917 312.933 498.051 314 496.317 314C494.984 314 491.317 313.933 485.317 313.8C479.317 313.533 472.117 313.4 463.717 313.4C455.317 313.4 448.451 313.533 443.117 313.8C437.784 313.933 434.451 314 433.117 314ZM605.066 316.4C596.132 316.4 588.199 314.267 581.266 310C574.466 305.733 569.132 299.933 565.266 292.6C561.399 285.267 559.466 277 559.466 267.8C559.466 258.6 561.399 250.4 565.266 243.2C569.132 235.867 574.466 230.133 581.266 226C588.199 221.733 596.132 219.6 605.066 219.6C614.132 219.6 622.066 221.733 628.866 226C635.666 230.133 640.999 235.867 644.866 243.2C648.732 250.4 650.666 258.6 650.666 267.8C650.666 277 648.732 285.267 644.866 292.6C640.999 299.933 635.666 305.733 628.866 310C622.066 314.267 614.132 316.4 605.066 316.4ZM605.066 309.8C613.066 309.8 618.932 305.933 622.666 298.2C626.399 290.467 628.266 280.333 628.266 267.8C628.266 255.4 626.399 245.4 622.666 237.8C618.932 230.067 613.066 226.2 605.066 226.2C597.066 226.2 591.199 230.067 587.466 237.8C583.732 245.4 581.866 255.4 581.866 267.8C581.866 280.333 583.732 290.467 587.466 298.2C591.199 305.933 597.066 309.8 605.066 309.8ZM668.716 314C666.582 314 665.516 312.867 665.516 310.6C665.516 308.467 666.582 307.4 668.716 307.4C673.516 307.4 676.716 306.533 678.316 304.8C679.916 302.933 680.716 299.733 680.716 295.2V186.2C680.716 182.6 680.316 180.267 679.516 179.2C678.716 178 677.382 177.267 675.516 177C674.582 176.733 673.182 176.533 671.316 176.4C669.449 176.133 668.049 175.933 667.116 175.8C665.249 175.533 664.316 174.467 664.316 172.6C664.316 170.6 665.316 169.467 667.316 169.2C667.716 169.2 669.249 169.2 671.916 169.2C674.716 169.067 677.782 169 681.116 169C684.582 169 687.716 169 690.516 169C693.316 168.867 695.116 168.8 695.916 168.8C699.249 168.8 700.916 170.467 700.916 173.8V294.8C700.916 299.467 701.716 302.733 703.316 304.6C704.916 306.467 707.982 307.4 712.516 307.4C714.516 307.4 715.516 308.467 715.516 310.6C715.516 312.867 714.516 314 712.516 314C711.582 314 709.782 313.933 707.116 313.8C704.582 313.667 701.782 313.6 698.716 313.6C695.649 313.467 692.982 313.4 690.716 313.4C688.449 313.4 685.782 313.467 682.716 313.6C679.649 313.6 676.782 313.667 674.116 313.8C671.449 313.933 669.649 314 668.716 314ZM732.388 314C730.254 314 729.188 312.933 729.188 310.8C729.188 308.533 730.254 307.4 732.388 307.4C737.188 307.4 740.388 306.467 741.988 304.6C743.588 302.6 744.388 299.333 744.388 294.8V239.2C744.388 235.6 744.054 233.2 743.388 232C742.721 230.8 741.454 230.133 739.588 230C738.654 229.733 737.188 229.533 735.188 229.4C733.188 229.267 731.721 229.133 730.788 229C728.921 228.6 727.988 227.467 727.988 225.6C727.988 223.467 728.988 222.4 730.988 222.4C731.388 222.4 732.921 222.4 735.588 222.4C738.388 222.267 741.454 222.2 744.788 222.2C748.254 222.2 751.388 222.2 754.188 222.2C756.988 222.067 758.788 222 759.588 222C762.921 222 764.588 223.533 764.588 226.6V294.8C764.588 299.333 765.321 302.6 766.788 304.6C768.254 306.467 771.054 307.4 775.188 307.4C777.054 307.4 777.988 308.533 777.988 310.8C777.988 312.933 777.054 314 775.188 314C774.254 314 772.521 313.933 769.988 313.8C767.588 313.667 764.921 313.6 761.988 313.6C759.188 313.467 756.654 313.4 754.388 313.4C752.121 313.4 749.454 313.467 746.388 313.6C743.321 313.6 740.454 313.667 737.788 313.8C735.121 313.933 733.321 314 732.388 314ZM752.988 198.2C749.254 198.2 746.054 196.933 743.388 194.4C740.854 191.733 739.588 188.533 739.588 184.8C739.588 180.933 740.854 177.733 743.388 175.2C746.054 172.667 749.254 171.4 752.988 171.4C756.721 171.4 759.854 172.667 762.388 175.2C765.054 177.733 766.388 180.933 766.388 184.8C766.388 188.533 765.054 191.733 762.388 194.4C759.854 196.933 756.721 198.2 752.988 198.2ZM837.878 316.4C828.945 316.4 821.011 314.267 814.078 310C807.278 305.733 801.945 299.933 798.078 292.6C794.211 285.267 792.278 277 792.278 267.8C792.278 258.6 794.211 250.4 798.078 243.2C801.945 235.867 807.278 230.133 814.078 226C821.011 221.733 828.945 219.6 837.878 219.6C846.945 219.6 854.878 221.733 861.678 226C868.478 230.133 873.811 235.867 877.678 243.2C881.545 250.4 883.478 258.6 883.478 267.8C883.478 277 881.545 285.267 877.678 292.6C873.811 299.933 868.478 305.733 861.678 310C854.878 314.267 846.945 316.4 837.878 316.4ZM837.878 309.8C845.878 309.8 851.745 305.933 855.478 298.2C859.211 290.467 861.078 280.333 861.078 267.8C861.078 255.4 859.211 245.4 855.478 237.8C851.745 230.067 845.878 226.2 837.878 226.2C829.878 226.2 824.011 230.067 820.278 237.8C816.545 245.4 814.678 255.4 814.678 267.8C814.678 280.333 816.545 290.467 820.278 298.2C824.011 305.933 829.878 309.8 837.878 309.8Z" fill="url(#paint0_linear_731_7)"/>
<path d="M43.04 95.56C40.2133 95.56 37.6267 94.9467 35.28 93.72C32.9333 92.5467 31.0667 90.6267 29.68 87.96C28.2933 85.2933 27.6 81.8267 27.6 77.56V75.56C25.6267 74.8133 24.0267 73.6933 22.8 72.2C21.5733 70.7067 20.96 68.7333 20.96 66.28C20.96 63.1333 22.0267 60.52 24.16 58.44C26.2933 56.3067 28.9067 54.6267 32 53.4L32.16 53.08C30.4533 52.4933 28.96 51.64 27.68 50.52C26.4 49.4 25.76 48.0933 25.76 46.6C25.92 46.3333 26.16 46.1733 26.48 46.12C26.8 46.0133 27.0933 46.0667 27.36 46.28C27.6267 47.1867 28.32 47.9067 29.44 48.44C30.56 48.92 31.8133 49.24 33.2 49.4C34.2133 46.2 35.0667 43.2933 35.76 40.68C36.5067 38.0133 36.88 35.9067 36.88 34.36C36.88 33.24 36.72 32.28 36.4 31.48C36.08 30.6267 35.6533 29.9067 35.12 29.32C35.12 28.9467 35.2267 28.6533 35.44 28.44C35.7067 28.2267 36 28.1467 36.32 28.2C37.9733 29.1067 39.36 30.2 40.48 31.48C41.6533 32.7067 42.24 34.1733 42.24 35.88C42.24 37.3733 41.7067 39.2667 40.64 41.56C39.6267 43.8 38.4533 46.4933 37.12 49.64C37.76 49.6933 38.24 49.8267 38.56 50.04C38.88 50.2 39.28 50.52 39.76 51C40.9333 52.12 41.3333 53.1867 40.96 54.2C40.64 55.16 39.8667 55.5333 38.64 55.32C37.4133 55.16 36.1867 55.1867 34.96 55.4C34.2133 57.64 33.52 60.0667 32.88 62.68C32.2933 65.24 31.8667 68.0133 31.6 71C32.88 71.16 34.1067 71.2133 35.28 71.16C36.5067 71.1067 37.5467 71.0267 38.4 70.92C39.0933 70.76 39.6267 70.7333 40 70.84C40.3733 70.9467 40.8267 71.2667 41.36 71.8C42.4267 72.8133 42.8 73.7733 42.48 74.68C42.2133 75.5333 41.2267 76.0933 39.52 76.36C38.1333 76.5733 36.72 76.7067 35.28 76.76C33.8933 76.76 32.56 76.6533 31.28 76.44V77.56C31.28 80.7067 31.84 83.2667 32.96 85.24C34.08 87.16 35.52 88.5467 37.28 89.4C39.0933 90.2533 41.0667 90.68 43.2 90.68C46.0267 90.68 48.3467 89.7733 50.16 87.96C52.0267 86.1467 52.96 83.9333 52.96 81.32C52.96 78.9733 52.5867 76.6533 51.84 74.36C51.1467 72.0667 50.2667 69.9067 49.2 67.88C48.1333 65.8533 47.0667 64.0933 46 62.6C44.9867 61.1067 44.16 59.9867 43.52 59.24C43.6267 58.3867 44.0267 58.0133 44.72 58.12C45.2533 58.6 46.08 59.4 47.2 60.52C48.32 61.5867 49.5467 62.8933 50.88 64.44C52.2667 65.9867 53.6 67.6933 54.88 69.56C56.16 71.3733 57.2 73.2933 58 75.32C58.8533 77.2933 59.28 79.2933 59.28 81.32C59.28 83.9867 58.6133 86.4133 57.28 88.6C55.9467 90.7333 54.0533 92.4133 51.6 93.64C49.2 94.92 46.3467 95.56 43.04 95.56ZM28.16 70.28C28.4267 67.9867 28.8267 65.6933 29.36 63.4C29.8933 61.1067 30.48 58.8667 31.12 56.68C29.1467 57.5333 27.4667 58.7867 26.08 60.44C24.7467 62.0933 24.08 63.96 24.08 66.04C24.08 67.1067 24.4533 67.9867 25.2 68.68C26 69.32 26.9867 69.8533 28.16 70.28ZM109.44 96.92C109.067 96.7067 108.8 96.4133 108.64 96.04C108.48 95.6667 108.48 95.2933 108.64 94.92C111.147 93.6933 113.573 92.28 115.92 90.68C118.32 89.08 120.48 87.1067 122.4 84.76C124.32 82.4133 125.92 79.48 127.2 75.96C128.533 72.44 129.413 68.1733 129.84 63.16C130.267 58.2533 130.133 54.36 129.44 51.48C128.8 48.5467 127.76 46.44 126.32 45.16C124.88 43.8267 123.147 43.16 121.12 43.16C119.627 43.16 118.187 43.6133 116.8 44.52C115.413 45.4267 114.187 46.6267 113.12 48.12C112.107 49.56 111.307 51.16 110.72 52.92C110.187 54.6267 109.973 56.28 110.08 57.88C110.293 60.6533 110.613 62.7333 111.04 64.12C111.467 65.5067 111.92 66.8133 112.4 68.04C112.827 69.0533 112.987 69.9333 112.88 70.68C112.827 71.3733 112.347 72.0933 111.44 72.84C109.627 74.3867 108.16 73.7467 107.04 70.92C105.76 67.7733 104.96 64.68 104.64 61.64C104.373 58.6 104.4 55.7467 104.72 53.08C105.04 50.36 105.493 47.88 106.08 45.64C106.667 43.4 107.227 41.4533 107.76 39.8C108.08 38.7867 108.347 37.9333 108.56 37.24C108.773 36.4933 108.853 35.9333 108.8 35.56C108.747 34.3333 108.507 33.4267 108.08 32.84C107.653 32.2533 107.013 31.8267 106.16 31.56C106 31.24 105.973 30.92 106.08 30.6C106.187 30.28 106.4 30.0667 106.72 29.96C108.107 30.12 109.52 30.6533 110.96 31.56C112.453 32.4667 113.253 33.7733 113.36 35.48C113.413 36.2267 113.253 37.1333 112.88 38.2C112.56 39.2133 112.16 40.3333 111.68 41.56C111.093 43 110.533 44.52 110 46.12C109.52 47.72 109.227 49.32 109.12 50.92C109.76 49.1067 110.667 47.3733 111.84 45.72C113.013 44.0133 114.4 42.6267 116 41.56C117.653 40.44 119.44 39.8533 121.36 39.8C126.373 39.5333 130.267 41.3733 133.04 45.32C135.867 49.2667 136.933 55.16 136.24 63C135.547 71.2667 133.04 78.2533 128.72 83.96C124.453 89.6133 118.027 93.9333 109.44 96.92ZM212.96 89.8C209.547 89.8 206.827 88.7867 204.8 86.76C202.827 84.68 201.547 82.3067 200.96 79.64C201.12 79.3733 201.36 79.1867 201.68 79.08C202 78.9733 202.267 79 202.48 79.16C203.547 81.2933 204.96 82.8133 206.72 83.72C208.48 84.6267 210.587 85.08 213.04 85.08C214.48 85.08 215.84 84.7333 217.12 84.04C218.4 83.3467 219.44 82.36 220.24 81.08C221.093 79.8 221.52 78.3067 221.52 76.6C221.52 73.4533 220.533 70.9733 218.56 69.16C216.587 67.2933 214.027 66.36 210.88 66.36C207.467 66.36 204.107 66.9733 200.8 68.2C197.493 69.4267 194.4 70.8933 191.52 72.6C191.787 75.64 192.133 78.0933 192.56 79.96C193.04 81.8267 193.28 83.0533 193.28 83.64C193.28 84.6533 193.04 85.6933 192.56 86.76C192.133 87.8267 191.147 88.68 189.6 89.32C188.48 89.8533 187.467 89.9067 186.56 89.48C185.707 89 185.173 88.0667 184.96 86.68C184.853 85.9333 184.213 85.16 183.04 84.36C181.92 83.5067 180.533 82.8133 178.88 82.28C178.347 82.8133 177.84 83.2933 177.36 83.72C176.933 84.1467 176.587 84.4933 176.32 84.76C175.52 85.5067 174.533 85.9333 173.36 86.04C172.24 86.0933 171.227 85.5867 170.32 84.52C169.627 83.7733 168.96 83.24 168.32 82.92C167.733 82.6 167.44 81.9867 167.44 81.08C167.44 79.32 168.907 78.44 171.84 78.44C172.8 78.44 173.84 78.52 174.96 78.68C176.507 77.7733 178.373 76.6 180.56 75.16C182.747 73.72 185.12 72.2533 187.68 70.76V69.4C187.68 67.0533 187.707 64.76 187.76 62.52C187.867 60.28 187.947 58.12 188 56.04C186.613 56.2533 185.227 56.44 183.84 56.6C182.453 56.76 181.147 56.84 179.92 56.84C178.16 56.84 176.613 56.44 175.28 55.64C173.947 54.7867 172.933 53.72 172.24 52.44C171.547 51.1067 171.227 49.72 171.28 48.28C171.76 47.64 172.293 47.56 172.88 48.04C173.093 49.6933 173.92 50.9467 175.36 51.8C176.853 52.6 178.453 53 180.16 53C181.227 53 182.453 52.8667 183.84 52.6C185.28 52.3333 186.72 51.9867 188.16 51.56C188.267 49.3733 188.4 47.4267 188.56 45.72C188.72 44.0133 188.853 42.6 188.96 41.48C189.12 39.9333 188.853 39 188.16 38.68C187.893 38.4667 187.493 38.36 186.96 38.36C186.427 38.3067 185.973 38.3067 185.6 38.36C185.013 37.7733 185.013 37.24 185.6 36.76C186.453 36.4933 187.467 36.36 188.64 36.36C189.813 36.3067 190.827 36.4133 191.68 36.68C192.427 36.84 193.12 37.1867 193.76 37.72C194.4 38.2533 194.827 38.84 195.04 39.48C195.307 40.12 195.173 40.7333 194.64 41.32C194.107 41.96 193.627 43.0533 193.2 44.6C192.827 46.1467 192.507 48.0133 192.24 50.2C194.107 49.4533 195.6 48.7333 196.72 48.04C197.307 47.72 198.507 48.1467 200.32 49.32C201.013 49.8 201.36 50.4133 201.36 51.16C201.413 51.9067 200.987 52.4933 200.08 52.92C198.107 53.7733 195.333 54.5733 191.76 55.32C191.653 57.3467 191.573 59.48 191.52 61.72C191.467 63.96 191.44 66.28 191.44 68.68C194.693 66.92 198.053 65.4267 201.52 64.2C205.04 62.92 208.48 62.28 211.84 62.28C215.2 62.28 218.053 62.92 220.4 64.2C222.8 65.4267 224.64 67.1333 225.92 69.32C227.2 71.4533 227.84 73.88 227.84 76.6C227.84 79 227.2 81.2133 225.92 83.24C224.64 85.2133 222.88 86.8133 220.64 88.04C218.4 89.2133 215.84 89.8 212.96 89.8ZM223.44 54.28C223.12 54.2267 222.853 54.0667 222.64 53.8C222.48 53.5333 222.427 53.2667 222.48 53C222.96 52.52 223.627 51.96 224.48 51.32C225.333 50.6267 226.133 50.0667 226.88 49.64C226.453 48.9467 225.733 48.3333 224.72 47.8C223.76 47.2667 222.587 47 221.2 47C218.373 47 216.053 47.4533 214.24 48.36C212.427 49.2133 210.747 50.28 209.2 51.56C208.347 51.4533 207.973 51.0533 208.08 50.36C208.72 49.56 209.68 48.5733 210.96 47.4C212.293 46.2267 213.92 45.1867 215.84 44.28C217.813 43.32 220.053 42.84 222.56 42.84C226.027 42.84 228.773 43.6133 230.8 45.16C232.827 46.7067 233.84 48.4933 233.84 50.52C233.84 51.6933 233.467 52.52 232.72 53C231.973 53.48 231.067 53.5333 230 53.16C228.507 52.6267 227.227 52.5467 226.16 52.92C225.147 53.2933 224.24 53.7467 223.44 54.28ZM186.08 82.76C187.36 83.72 188 83.3733 188 81.72C188 81.1867 187.973 80.3333 187.92 79.16C187.92 77.9333 187.893 76.5733 187.84 75.08C186.56 75.9333 185.333 76.8133 184.16 77.72C183.04 78.6267 182.027 79.48 181.12 80.28C183.093 81.0267 184.747 81.8533 186.08 82.76ZM349.76 97.24C348.747 96.8667 348.427 96.2267 348.8 95.32C354.453 92.3867 358.587 88.2267 361.2 82.84C357.253 81.7733 353.92 79.5067 351.2 76.04C348.48 72.5733 346.827 68.4933 346.24 63.8C344.747 66.04 343.627 68.28 342.88 70.52C342.133 72.7067 341.76 74.68 341.76 76.44C341.76 77.4 341.947 78.1733 342.32 78.76C342.693 79.2933 343.227 79.9867 343.92 80.84C344.773 81.6933 345.093 82.7333 344.88 83.96C344.72 85.1333 344.187 86.0933 343.28 86.84C342.587 87.3733 341.76 87.5067 340.8 87.24C339.893 86.92 338.907 86.1467 337.84 84.92C335.867 82.5733 334.16 79.5333 332.72 75.8C331.28 72.0133 330.56 67.2933 330.56 61.64C330.56 57.5333 330.8 53.8267 331.28 50.52C331.76 47.16 332 44.4667 332 42.44C332 40.8933 331.813 39.7467 331.44 39C331.067 38.2533 330.48 37.5867 329.68 37C329.467 36.2533 329.76 35.7733 330.56 35.56C332.107 36.0933 333.6 36.9733 335.04 38.2C336.533 39.3733 337.28 40.8667 337.28 42.68C337.28 43.8 337.04 45.3733 336.56 47.4C336.133 49.3733 335.68 51.5867 335.2 54.04C334.72 56.4933 334.48 59.0267 334.48 61.64C334.48 65.4267 334.88 68.52 335.68 70.92C336.48 73.2667 337.227 75.0267 337.92 76.2C339.307 69.8533 342.027 64.2 346.08 59.24C346.187 55.6667 346.773 52.2533 347.84 49C348.96 45.6933 350.4 42.7333 352.16 40.12C353.973 37.5067 355.92 35.4533 358 33.96C359.973 32.4667 361.867 31.72 363.68 31.72C364.907 31.72 366 32.1467 366.96 33C367.92 33.8533 368.64 35.24 369.12 37.16C369.387 38.3333 369.627 39.64 369.84 41.08C370.053 42.52 370.24 44.0933 370.4 45.8C370.987 45.7467 371.6 45.72 372.24 45.72C372.88 45.6667 373.547 45.64 374.24 45.64C378.027 45.64 381.253 46.4667 383.92 48.12C386.64 49.72 388.693 51.8533 390.08 54.52C391.467 57.1867 392.08 60.12 391.92 63.32C391.76 66.9467 390.533 70.28 388.24 73.32C386 76.36 382.96 78.7867 379.12 80.6C375.28 82.4133 370.907 83.3467 366 83.4C364.133 86.8133 361.787 89.6133 358.96 91.8C356.133 93.9333 353.067 95.7467 349.76 97.24ZM368.24 78.6C371.067 78.3333 373.787 77.56 376.4 76.28C379.067 75 381.28 73.24 383.04 71C384.8 68.76 385.76 66.0667 385.92 62.92C386.08 60.4667 385.707 58.2 384.8 56.12C383.947 53.9867 382.613 52.2533 380.8 50.92C378.987 49.5867 376.72 48.92 374 48.92C373.467 48.92 372.907 48.9467 372.32 49C371.733 49 371.173 49.0267 370.64 49.08C370.747 50.8933 370.827 52.7867 370.88 54.76C370.933 56.68 370.96 58.6533 370.96 60.68C370.96 64.3067 370.72 67.6133 370.24 70.6C369.76 73.5333 369.093 76.2 368.24 78.6ZM362.96 78.44C364.453 73.64 365.2 67.6933 365.2 60.6C365.2 58.7867 365.173 57 365.12 55.24C365.12 53.4267 365.093 51.6933 365.04 50.04C361.627 50.9467 358.56 52.3067 355.84 54.12C353.173 55.9333 350.88 57.9333 348.96 60.12V60.44C348.907 63.2133 349.387 65.88 350.4 68.44C351.413 71 352.96 73.1867 355.04 75C357.173 76.8133 359.813 77.96 362.96 78.44ZM349.28 55.64C351.467 53.6133 353.84 51.8533 356.4 50.36C359.013 48.8133 361.84 47.64 364.88 46.84C364.773 44.9733 364.64 43.2667 364.48 41.72C364.32 40.12 364.107 38.8133 363.84 37.8C363.52 36.2 362.8 35.4 361.68 35.4C360.827 35.4 359.813 35.9333 358.64 37C356.507 39.0267 354.56 41.6133 352.8 44.76C351.04 47.9067 349.867 51.5333 349.28 55.64ZM426.08 96.36C425.28 95.72 425.147 95.0267 425.68 94.28C429.04 93.32 432.213 92.1467 435.2 90.76C438.24 89.3733 440.907 87.6667 443.2 85.64C445.493 83.56 447.28 81.08 448.56 78.2C449.893 75.32 450.56 71.9067 450.56 67.96C450.56 63 449.973 59.2133 448.8 56.6C447.68 53.9867 445.84 52.68 443.28 52.68C441.84 52.68 440.427 53.1867 439.04 54.2C437.653 55.2133 436.267 56.4133 434.88 57.8C433.547 59.1333 432.213 60.3067 430.88 61.32C429.6 62.3333 428.293 62.84 426.96 62.84C425.467 62.84 424.32 62.4667 423.52 61.72C422.773 60.92 422.267 59.96 422 58.84C421.787 57.88 421.76 56.8667 421.92 55.8C422.133 54.68 422.453 53.6933 422.88 52.84C423.147 52.6267 423.44 52.5733 423.76 52.68C424.08 52.7867 424.32 52.9733 424.48 53.24C424.267 54.0933 424.453 54.8933 425.04 55.64C425.627 56.3333 426.347 56.68 427.2 56.68C428.267 56.68 429.413 56.3333 430.64 55.64C431.867 54.8933 433.147 54.04 434.48 53.08C435.813 52.0667 437.2 51.2133 438.64 50.52C440.133 49.7733 441.68 49.4 443.28 49.4C448.133 49.4 451.573 51.0533 453.6 54.36C455.627 57.6133 456.64 62.1733 456.64 68.04C456.64 71.9867 455.947 75.4533 454.56 78.44C453.227 81.3733 451.413 83.9067 449.12 86.04C446.88 88.12 444.4 89.8533 441.68 91.24C438.96 92.6267 436.24 93.72 433.52 94.52C430.8 95.3733 428.32 95.9867 426.08 96.36ZM434.16 44.6C433.84 44.4933 433.6 44.3067 433.44 44.04C433.28 43.7733 433.227 43.5067 433.28 43.24C433.973 42.7067 434.853 42.0933 435.92 41.4C436.987 40.6533 437.947 40.0933 438.8 39.72C436.613 39.5067 434.827 38.8933 433.44 37.88C432.107 36.8667 431.093 35.6133 430.4 34.12C429.707 32.6267 429.253 31.0533 429.04 29.4C429.2 29.1333 429.44 28.9733 429.76 28.92C430.08 28.8133 430.373 28.8667 430.64 29.08C431.227 31.0533 432.587 32.5733 434.72 33.64C436.907 34.7067 439.467 35.1333 442.4 34.92C443.947 34.8133 445.067 35 445.76 35.48C446.453 35.96 447.067 36.68 447.6 37.64C448.293 38.7067 448.507 39.6133 448.24 40.36C448.027 41.0533 447.547 41.3467 446.8 41.24C444.293 40.92 442.053 41.1333 440.08 41.88C438.16 42.6267 436.373 43.4267 434.72 44.28C434.453 44.44 434.267 44.5467 434.16 44.6ZM522.16 95.08C519.867 95.24 517.76 94.9733 515.84 94.28C513.973 93.64 512.507 92.6533 511.44 91.32C510.373 89.9333 509.893 88.3067 510 86.44C510.107 84.0933 511.2 82.1467 513.28 80.6C515.36 79.0533 518.027 78.28 521.28 78.28C522.56 78.28 523.813 78.3333 525.04 78.44C526.267 78.5467 527.467 78.7067 528.64 78.92C528.587 76.5733 528.507 74.1467 528.4 71.64C528.293 69.1333 528.24 66.2267 528.24 62.92C528.24 59.8267 529.013 57.6133 530.56 56.28C532.107 54.9467 534.027 54.28 536.32 54.28C537.387 54.28 538.08 54.0667 538.4 53.64C538.773 53.2133 538.96 52.6 538.96 51.8C538.96 51.0533 538.48 50.2 537.52 49.24C536.56 48.2267 535.307 47.5333 533.76 47.16C533.44 46.4667 533.6 45.9333 534.24 45.56C535.36 45.6667 536.64 45.9333 538.08 46.36C539.52 46.7867 540.88 47.3467 542.16 48.04C543.493 48.68 544.587 49.4533 545.44 50.36C546.293 51.2133 546.72 52.1467 546.72 53.16C546.72 54.7067 546.267 55.8 545.36 56.44C544.453 57.0267 543.36 57.3467 542.08 57.4C540.853 57.4533 539.707 57.4533 538.64 57.4C538.373 57.3467 538.107 57.32 537.84 57.32C537.573 57.32 537.333 57.32 537.12 57.32C535.093 57.32 533.627 57.6933 532.72 58.44C531.813 59.1867 531.36 60.6533 531.36 62.84C531.36 66.2533 531.68 69.4 532.32 72.28C533.013 75.16 533.493 77.7733 533.76 80.12C536.587 80.8667 539.067 81.72 541.2 82.68C543.333 83.64 544.853 84.4133 545.76 85C546.613 85.5333 547.173 86.3333 547.44 87.4C547.707 88.4133 547.733 89.32 547.52 90.12C547.307 91.08 546.88 91.7467 546.24 92.12C545.6 92.44 544.827 92.2533 543.92 91.56C542.587 90.4933 541.067 89.4 539.36 88.28C537.707 87.1067 535.84 86.0667 533.76 85.16C533.333 88.04 532.16 90.36 530.24 92.12C528.32 93.8267 525.627 94.8133 522.16 95.08ZM492.56 80.76C491.867 80.0133 491.44 79.1333 491.28 78.12C491.12 77.0533 491.413 76.04 492.16 75.08C493.653 73.16 495.307 70.7333 497.12 67.8C498.933 64.8667 500.72 61.6933 502.48 58.28C504.293 54.8133 505.84 51.2933 507.12 47.72C506.48 47.7733 505.84 47.8267 505.2 47.88C504.613 47.88 504.027 47.88 503.44 47.88C500.4 47.88 498.16 47 496.72 45.24C495.333 43.48 494.667 41.5067 494.72 39.32C495.2 38.68 495.733 38.6 496.32 39.08C496.533 40.7867 497.36 42.0667 498.8 42.92C500.24 43.7733 501.787 44.2 503.44 44.2C504.24 44.2 505.067 44.1733 505.92 44.12C506.773 44.0133 507.627 43.8533 508.48 43.64C508.907 42.1467 509.28 40.68 509.6 39.24C509.92 37.8 510.16 36.4133 510.32 35.08C510.427 34.2267 510.453 33.5867 510.4 33.16C510.347 32.7333 510.107 32.3333 509.68 31.96C509.467 31.6933 509.067 31.5333 508.48 31.48C507.893 31.3733 507.413 31.2933 507.04 31.24C506.827 30.9733 506.747 30.68 506.8 30.36C506.907 30.04 507.067 29.8 507.28 29.64C508.187 29.5333 509.253 29.5867 510.48 29.8C511.76 29.96 512.853 30.2533 513.76 30.68C514.827 31.1067 515.68 31.88 516.32 33C516.96 34.0667 516.853 34.9733 516 35.72C515.467 36.1467 515.013 36.6267 514.64 37.16C514.32 37.64 514.053 38.2533 513.84 39C513.733 39.5333 513.6 40.0933 513.44 40.68C513.28 41.2667 513.067 41.9067 512.8 42.6C514.453 42.0667 516 41.5067 517.44 40.92C518.88 40.28 520.08 39.6667 521.04 39.08C521.68 38.7067 522.907 39.1333 524.72 40.36C525.413 40.84 525.76 41.4533 525.76 42.2C525.813 42.9467 525.36 43.5333 524.4 43.96C523.12 44.4933 521.28 45.08 518.88 45.72C516.48 46.3067 513.947 46.8133 511.28 47.24C510.267 50.0133 509.093 53 507.76 56.2C506.48 59.4 505.147 62.5467 503.76 65.64C502.427 68.7333 501.147 71.5333 499.92 74.04C498.693 76.4933 497.653 78.44 496.8 79.88C496.32 80.7333 495.627 81.24 494.72 81.4C493.813 81.5067 493.093 81.2933 492.56 80.76ZM521.92 90.52C523.84 90.4133 525.36 89.7467 526.48 88.52C527.653 87.24 528.347 85.5067 528.56 83.32C526.267 82.68 523.76 82.36 521.04 82.36C518.693 82.36 516.907 82.7333 515.68 83.48C514.507 84.1733 513.867 85.16 513.76 86.44C513.6 87.8267 514.213 88.92 515.6 89.72C517.04 90.4667 519.147 90.7333 521.92 90.52ZM596.4 92.92C596.027 92.6533 595.813 92.3067 595.76 91.88C595.76 91.4533 595.893 91.1067 596.16 90.84C599.467 90.2533 602.773 89.2933 606.08 87.96C609.44 86.6267 612.507 84.8667 615.28 82.68C618.053 80.4933 620.267 77.8533 621.92 74.76C623.627 71.6133 624.48 68.0133 624.48 63.96C624.48 58.7333 623.493 54.2533 621.52 50.52C619.547 46.7867 616.8 43.9067 613.28 41.88C609.813 39.8533 605.76 38.8133 601.12 38.76V43.72C601.12 47.9867 600.667 52.1467 599.76 56.2C598.907 60.2533 597.76 64.04 596.32 67.56C594.933 71.08 593.36 74.1733 591.6 76.84C589.893 79.5067 588.187 81.5867 586.48 83.08C584.773 84.5733 583.2 85.32 581.76 85.32C580.48 85.32 579.2 85.0533 577.92 84.52C576.64 83.9867 575.467 83.1333 574.4 81.96C572.96 80.4133 571.787 78.36 570.88 75.8C569.973 73.1867 569.52 69.9867 569.52 66.2C569.52 62.68 570.267 59.1333 571.76 55.56C573.253 51.9867 575.387 48.7067 578.16 45.72C580.933 42.68 584.213 40.2533 588 38.44C591.84 36.5733 596.107 35.64 600.8 35.64C605.067 35.64 609.013 36.3333 612.64 37.72C616.267 39.1067 619.413 41.08 622.08 43.64C624.8 46.1467 626.907 49.16 628.4 52.68C629.893 56.2 630.64 60.0933 630.64 64.36C630.64 69.0533 629.627 73.1333 627.6 76.6C625.627 80.0133 622.987 82.8933 619.68 85.24C616.373 87.5867 612.693 89.4 608.64 90.68C604.587 91.9067 600.507 92.6533 596.4 92.92ZM581.52 78.2C582.747 78.2 584.107 77.5333 585.6 76.2C587.093 74.8133 588.56 72.9467 590 70.6C591.44 68.2 592.747 65.5067 593.92 62.52C595.147 59.48 596.107 56.3333 596.8 53.08C597.547 49.7733 597.92 46.52 597.92 43.32V38.92C593.493 39.4 589.547 40.92 586.08 43.48C582.613 45.9867 579.893 49.1867 577.92 53.08C576 56.9733 575.04 61.2933 575.04 66.04C575.04 69.6133 575.627 72.5467 576.8 74.84C578.027 77.08 579.6 78.2 581.52 78.2Z" fill="url(#paint1_linear_731_7)"/>
<defs>
<linearGradient id="paint0_linear_731_7" x1="447.5" y1="82" x2="447.5" y2="372" gradientUnits="userSpaceOnUse">
<stop stop-color="#051637"/>
<stop offset="0.465" stop-color="#1C2C52"/>
<stop offset="1" stop-color="#5C658B"/>
</linearGradient>
<linearGradient id="paint1_linear_731_7" x1="320" y1="0" x2="320" y2="116" gradientUnits="userSpaceOnUse">
<stop stop-color="#1E4062"/>
<stop offset="1" stop-color="#436B94" stop-opacity="0.57"/>
</linearGradient>
</defs>
</svg>
