<?xml version="1.0" encoding="UTF-8"?>
<svg id="_レイヤー_1" xmlns="http://www.w3.org/2000/svg" viewBox="0 0 225.67 229.54">
  <defs>
    <style>
      .cls-1 {
        fill: #fff;
      }
    </style>
  </defs>
  <g>
    <path class="cls-1" d="M182.79,88.91c-6.89-6.05-16.18-.76-20.45,5.61-2.54,3.78-4.21,8.24-6.09,12.37-1.78.3-3.56.56-5.34.78-6.54.8-13.12,1.09-19.69.92-1.64-.04-3.29-.11-4.93-.21-11.37.4-26.98,4.12-32.18-2.57-5.94-7.43,14.12-.74,20.76-5.99.45-.45,1-1.67,1.11-3.57.22-.78-.11-3.01-1.11-3.68s-1.56-1.34-3.46-1.56c-1.45-.56-2.9-.11-5.13-.11-1.34.45-3.46,0-4.9,0-1.22-.11-3.46.11-6.02,0-3.34-.11-3.57-1.45-3.57-4.13.22-1.9-.9-3.57-2.12-4.24-1.34-.78-2.46-.78-3.9-.89-1.34-.11-3.79-.11-4.46.89-1.45,1.22-1.9,2.34-2.12,3.68.34,2.12-.22,4.02,0,5.91.11,1.9-.11,3.57,0,5.69-.56,2.34-.11,3.9,0,7-.7,3.97-5.9,5.46-9.14,2.7-.45-1.11-.78-1.45-.78-4.02,0-1.9-.34-3.68-.11-5.35-.34-1.9.11-2.56,0-4.13.11-1-1.22-2.57-2.01-3.57-1.22-1-2.46-1.34-4.13-1.11-1.56-.45-3.01.11-4.13,1.11-1.78,1.11-1.9,2.46-2.01,3.46,0,1.45,0,2.78.11,4.02.45,2.01-.22,4.13.22,5.91.45,1.67-.22,2.9-.89,3.79-.67,1.45-3.01,1.56-3.46,1.34-2.67,0-5.24.11-6.91.11-1.9-.22-2.67.67-3.46,1.67-1,.56-1.22,2.23-1.11,3.68-.11,1.56.34,3.12,1.11,3.68.78.78,2.12,1.56,3.46,1.67s3.01-.11,4.9.11c1.22.34,2.67.22,4.79,0,1.45.45,3.68.22,4.79,0,1.45,0,3.57-.22,4.79-.02,21.41-2.91,43.71-2.91,65.5.02,2.22.06,4.43.07,6.65.02,4.43-.09,8.86-.38,13.26-.9-.39.86-.79,1.72-1.18,2.58-3.66,7.97-8.58,16.71-3.48,25.2,3.22,5.36,9.41,7.94,12.7,13.05,3.58,5.58-7.44,10.87-10.57,13.98-7.52,7.49-7.22,18.36-1.4,26.82,3.06,4.45,7.14,7.92,10.97,11.65,3.18,3.1,6.82,6.9,7.27,11.57.3,3.05,2.39,5.67,5.67,5.67,2.83,0,5.98-2.61,5.67-5.67-.76-7.71-4.73-13.77-10.14-19.15-4.7-4.66-11.99-9.59-12.56-16.81-.52-6.62,8.22-9.92,12.01-14.04,4.7-5.1,6.8-11.95,3.6-18.41-2.34-4.74-6.82-7.7-10.58-11.19-1.4-1.3-3.08-2.79-3.54-4.74-.8-3.42,2.19-7.94,3.54-10.88,1.76-3.85,3.5-7.7,5.26-11.55,5.18-1.05,10.22-2.66,14.36-5.65,6.63-4.78,11.92-16.01,4.48-22.54l.04.02ZM170.6,103c1.13-1.93,2.38-3.47,4.11-5.16.03-.03.09-.05.14-.06-.24.87-.42,1.7-1.04,2.52-.86,1.14-1.98,2.02-3.21,2.7Z"/>
    <path class="cls-1" d="M73.3,72.51c0,3.46.34,5.91-.11,7.58.34,1.56-.89,2.67-1.67,3.34-1,.45-2.46,1.45-3.68,1.11-1.9.34-2.56-.22-3.68-1.11-.78-.9-1.9-1.45-1.78-3.34.34-1.78.11-3.9,0-5.91.11-1.9,0-2.9-.22-3.34-.34-.56-.78-.45-1.34.11-.78.78-1.78,2.23-2.46,2.78-1.45.78-2.23,2.57-3.34,2.9-.89,1.11-2.46,1.45-3.12,1.22-1.34-.45-1.78-.34-3.23-1.45-1.11-.9-1.45-1.45-1.34-3.23,0-1.11.78-3.46,1.9-4.24.89-1.78,2.23-2.01,3.57-3.79,1.34-.67,1.9-2.34,2.9-3.23,1.34-.78,2.12-2.57,3.12-4.02.34-.56.45-1,.34-1.34-.45-.67-2.12-.78-4.34-.78-2.67-.22-3.57-.67-4.68-1.45-.45-.34-.89-1.45-1.11-3.12-.34-2.46,1.56-4.24,3.9-4.68,1.45-.22,3.12.11,6.13-.11,1.56-.22,3.34-1,3.23-4.02,0-2.46.34-3.79,2.01-4.34,1.45-1,2.12-1,3.57-1.11.67,0,2.78.67,3.46,1.11,1.22.45,2.01,1.34,1.9,3.23,0,2.34.45,3.57,1.78,4.34,1.34.78,3.68.67,5.02.78,1.9.11,2.9.56,3.68,1.56.67,1.22.78,1.56,1.11,3.23.22,1-.22,2.23-1.11,3.23-.34.34-1.67,1.56-3.34,1.45-3.23-.11-4.57.11-4.9.9-.11.22,0,.56.11.89,1.56,1.78,2.9,2.46,3.9,3.12,1.11,1.56,2.01,2.01,3.01,3.01.89,1.11.89,2.34,1.22,3.12-1,2.46-2.34,4.13-4.24,4.34-1.11.56-3.01-.67-4.13-1.78-1.56-1-2.23-.34-2.01,3.01v.02Z"/>
    <path class="cls-1" d="M128.7,71.4c.34,2.46.34,3.9-1,4.9-.56,1.11-2.46,2.01-3.57,1.67-2.01.45-4.13-1-5.35-2.78-1.11-1-1.34-1.78-2.46-2.23-1-.89-1.67-1.67-2.34-2.23-1.9-1.9-2.46-1.56-3.12-.67-.67.45-.22,3.57-.45,5.02-.34,2.01.11,3.12-.11,4.57-.22,1.9-1.22,2.67-1.67,3.34-1.22.89-2.56,1.11-3.68,1.11-.9-.11-2.46-.56-3.68-1.11-.56-.22-1.78-1.9-1.78-3.34.45-1.45.22-3.79.22-5.46,0-3.9.22-4.9-.56-5.13-.78-.22-1.22.45-2.9,2.23-1.22.67-1.45,1.56-2.12,2.34-.78,1.11-2.34,2.23-4.02,3.57-1.56,1.11-2.34,1.34-3.68,1.45-1.78.34-2.46-.67-3.34-1.45-1.22-1-1.34-2.12-1.45-3.23-.22-1.78,1.56-3.68,3.12-5.02,1-1.34,2.46-1.56,3.34-3.12.56-1.56,2.34-1.67,3.23-3.34.67-.67,2.46-2.46,3.68-4.34.67-.67.78-1.22.34-1.56-.45-.45-1.56-.67-3.46-.67-1.67,0-3.46-.11-4.34-1.56-1.11-1.34-.89-2.12-1-3.12-.22-2.57,1.67-5.13,3.9-4.68,1.22-.34,3.01-.22,5.8-.11,2.9-.11,3.23-1.22,3.23-5.13.34-2.23.67-2.34,1.9-3.23,1.34-.45,1.56-1,3.57-1.11.67,0,2.23.56,3.46,1.11,1.34.22,1.56,1.34,1.9,3.23,0,1.9-.34,3.34.9,4.46.45.78,2.23.9,3.12.67,2.9.56,5.24-.45,7.14.11,2.46,0,3.79,2.12,3.79,4.68-.22,2.9-1.67,4.57-3.79,4.68-3.68-.22-5.58.22-6.13,1.11-.67,1,0,1.78,2.9,4.46,1.45.78,2.12,2.23,3.23,2.78,1.11,1.34,2.01,2.01,3.46,2.78,1.22,1.34,2.9,2.12,3.79,4.34v.02Z"/>
  </g>
  <path class="cls-1" d="M109.43,218.88c-42.72,1.17-83.48-25.14-100.35-64.5C-8.72,114.61.24,65.4,30.85,34.24,90.44-27.36,193.78-1.93,220.08,79.27c3.5,10.82,5.38,22.2,5.59,33.6.12,6.21-4.82,11.33-11.02,11.45-6.37.14-11.61-5.12-11.45-11.49,1.63-48.21-36.31-91.25-84.25-96.47C69.48,9.88,21.51,44.37,11.24,93.28-.24,143.96,29.99,195.82,79.43,211.7c4.82,1.59,9.77,2.74,14.78,3.63,5.02.85,10.1,1.26,15.21,1.44,1.35,0,1.39,2.07,0,2.1h0Z"/>
  <g>
    <path class="cls-1" d="M46.28,165.32c-.02.38-.16.82-.45.96-.2.34-.6.34-1,.34-.36.11-.76-.18-1.02-.34-.36-.11-.4-.51-.47-.96-.05-.22-.11-.6,0-.96-.05-.25-.05-.6,0-.9-.02-.36.09-.65,0-.91.09-.29-.05-.56,0-.94-.09-.26.05-.6,0-.91-.11-.22-.05-.56,0-.91.05-.26.06-.56,0-.91.05-.34-.06-.6,0-.94.06-.22-.02-.62,0-.91-.09-.29.09-.62,0-.91.06-.4.09-.62,0-.91.09-.29.06-.65,0-.94-.06-.2.05-.58,0-.91s-.05-.67,0-.91c.02-.34-.09-.65,0-.91.05-.36-.11-.67,0-.94.02-.42.2-.78.47-.96.34-.26.71-.45,1.02-.36.45.09.74.14,1,.36.31.26.31.62.45.96-.09.36-.09.65,0,.94.09.36-.05.67,0,.91.05.25.05.74,0,.91-.11.38.02.67,0,.91.05.29-.02.71,0,.94.06.31-.05.62,0,.91.02.26-.02.67,0,.91.05.42-.09.62,0,.91-.11.34.06.69,0,.94.02.38-.02.56,0,.91-.02.25-.11.74,0,.91.09.26,0,.71,0,.91-.09.38-.06.65,0,.94-.11.34.09.56,0,.91.09.26.05.58,0,.91.09.4-.02.62,0,.94h0Z"/>
    <path class="cls-1" d="M62.75,164.45c-.09.4,0,.67-.14.91-.11.29-.25.67-.51.8-.29.29-.76.38-1.31.47-.31-.05-.78-.09-.98-.16-.26,0-.58-.34-.8-.54-.25-.26-.45-.56-.56-.76-.14-.31-.36-.6-.4-.82-.14-.36-.36-.67-.45-1.02-.25-.29-.25-.6-.45-1.02-.14-.26-.36-.6-.45-1.02-.26-.38-.31-.6-.47-1.02-.06-.4-.29-.74-.45-1.02-.22-.31-.29-.6-.45-1.05-.16-.22-.42-.6-.45-1.02-.16-.38-.34-.78-.47-1.02-.25-.26-.36-.67-.45-1.05-.25-.31-.25-.76-.4-1.07-.11-.22-.11-.36-.29-.65-.11-.18-.45-.2-.45.11s-.06.47-.02.71c.05.25-.02.49,0,.74.06.42-.06.62.02.94-.09.34.09.69.02.94-.11.36-.02.67,0,1.07.02.31.06.69,0,1.07.06.38.05.76,0,1.07,0,.29-.02.74,0,1.07-.02.4-.09.62,0,1.07.02.36-.09.74,0,1.07-.06.42-.05.67,0,1.07.05.42,0,.65,0,1.11.06.4-.11.65-.42.9-.29.31-.51.36-.94.34-.45.02-.62-.14-.96-.34-.18-.31-.31-.51-.4-.9.05-.56,0-1.16-.02-1.78.06-.65.06-1.14,0-1.74-.09-.67-.09-1.18,0-1.74-.06-.47,0-1.25,0-1.76-.05-.62-.02-1.18,0-1.74,0-.47.09-1.05,0-1.74.05-.67.02-1.07,0-1.74-.06-.58-.11-1.1,0-1.74.05-.34-.02-.6.14-.91.16-.2.22-.56.47-.76.09-.11.38-.25.65-.36.29-.05.56-.05.74-.11.49.02.76.11,1.16.18.26.16.71.34.96.62.18.26.36.49.54.74.14.22.38.51.4.8.09.34.34.58.38.89.06.29.2.65.4.91.16.25.16.6.38.9.2.26.25.67.4.91.14.36.2.62.38.89.11.34.34.69.4.91.14.38.36.71.4.91.06.26.2.65.38.9.18.45.26.67.45,1.07.11.29.18.82.42,1.07.22.31.18.51.31.8.09.18.11.47.22.62.09.11.31.11.36-.06.02-.14.05-.4.05-.56-.02-.36.02-.67-.05-1.05.09-.29.02-.78.05-1.18-.06-.31.02-.74,0-1.18,0-.29.02-.62-.06-.98-.02-.2.05-.56,0-.98-.02-.29,0-.67,0-.96s-.05-.62,0-1,.05-.54,0-.98c-.11-.25,0-.6-.02-.98.05-.34-.02-.56,0-.96.06-.34-.05-.67.02-1.02-.05-.26.05-.62.4-.9.25-.22.6-.38.96-.34.42.11.71.11.96.34.26.29.31.6.4.9-.09.25,0,.69,0,.9.05.36-.09.69,0,.87-.02.56-.05,1.07,0,1.74-.02.67-.09,1.11,0,1.74.02.56-.02,1.11,0,1.74,0,.67-.02,1.21,0,1.74.05.69.06,1.16,0,1.74.02.49-.09,1.16,0,1.74.06.56-.11,1.22,0,1.74l.02.02Z"/>
    <path class="cls-1" d="M76.46,158.05c.02.42-.06.54-.18.87-.2.38-.25.56-.49.74-.2.18-.42.47-.71.49-.25.22-.58.18-.9.18-.38.09-.56-.05-.87-.18-.31-.16-.56-.36-.74-.49-.18-.26-.47-.51-.49-.74-.06-.31-.29-.6-.18-.87.06-.25.05-.62.18-.9.02-.25.38-.54.49-.71.29-.29.56-.38.74-.49.36-.09.62-.2.87-.18.36.09.56.05.87.18.31.14.42.36.74.49.2.2.38.4.49.74.18.22.25.47.18.87Z"/>
    <path class="cls-1" d="M95.97,162.65c-.18.38-.14.67-.26.94-.09.29-.29.69-.45.87-.11.31-.45.56-.62.78-.38.36-.51.54-.94.71-.36.31-.76.45-1.05.49-.45.16-.82.25-1.11.26-.31.11-.82.14-1.16.09-.45-.02-1.16.02-1.56-.14-.29-.02-.45,0-.76-.18-.26,0-.42-.02-.74-.25-.29-.11-.54-.16-.71-.34-.16-.06-.42-.2-.65-.4-.14-.22-.34-.31-.6-.51-.26-.26-.42-.4-.54-.6-.18-.29-.36-.74-.38-1.02-.02-.25.18-.74.45-.9.16-.11.65-.31.94-.36.38,0,.76.11.98.45.25.2.36.47.67.74.26.18.36.38.74.58.26.31.71.38,1.05.45.34.02.74.05,1.16.11.47-.09.91-.06,1.2-.2.47-.11.78-.36.98-.65.31-.2.38-.58.51-.87.02-.31.25-.71.16-1.02.05-.36-.02-.69-.25-1.07-.11-.34-.45-.56-.71-.8-.38-.18-.56-.36-.91-.49-.45-.06-.74-.2-1.02-.34-.26-.09-.51-.06-.8-.22-.26-.11-.6-.2-.87-.26-.29,0-.6-.16-.87-.34-.22-.02-.49-.26-.82-.42-.22-.26-.58-.36-.71-.56-.26-.14-.58-.42-.65-.78-.16-.31-.31-.65-.4-.87-.14-.31-.22-.69-.22-.94-.06-.22-.16-.69-.06-.98.02-.22-.02-.47.06-.85-.06-.31.14-.45.22-.78.18-.31.22-.56.38-.76.09-.2.34-.36.51-.67.2-.2.51-.51.87-.67.36-.14.62-.4.96-.42.36-.16.62-.2,1.05-.26.26,0,.76,0,1.07-.06.47-.06.87.06,1.34.11.42.11.78.09,1.27.34.42.16.71.36,1.16.58.26.06.34.31.56.38.16.22.31.26.51.49.29.31.34.62.45.96-.02.36-.06.71-.4.98-.18.26-.65.38-1,.4s-.76-.06-1-.4c-.22-.26-.51-.36-.6-.6-.31-.18-.45-.38-.65-.47-.2-.18-.4-.25-.71-.31-.2-.05-.49-.06-.82-.11-.38.11-.62-.05-.91.14-.34.02-.58.18-.78.36-.22.29-.31.49-.54.62-.11.16-.2.62-.22.89-.05.45-.05.76.2,1.07.09.36.29.6.65.82.38.18.65.31.91.47.42.25.65.22,1,.31.31.2.54.16.8.22.31.02.56.31,1,.31.42.06.65.34.98.4.22.2.56.34.91.51.18.25.65.38.8.67.22.2.36.56.54.76.18.38.16.54.31.82-.02.31.2.65.18.9.05.38.02.56.05.89.05.26.02.78-.09,1l-.02.02Z"/>
    <path class="cls-1" d="M101.88,165.32c-.02.38-.16.82-.45.96-.2.34-.6.34-1,.34-.36.11-.76-.18-1.02-.34-.36-.11-.4-.51-.47-.96-.05-.22-.11-.6,0-.96-.05-.25-.05-.6,0-.9-.02-.36.09-.65,0-.91.09-.29-.05-.56,0-.94-.09-.26.05-.6,0-.91-.11-.22-.05-.56,0-.91.05-.26.06-.56,0-.91.05-.34-.06-.6,0-.94.06-.22-.02-.62,0-.91-.09-.29.09-.62,0-.91.06-.4.09-.62,0-.91.09-.29.06-.65,0-.94-.06-.2.05-.58,0-.91s-.05-.67,0-.91c.02-.34-.09-.65,0-.91.05-.36-.11-.67,0-.94.02-.42.2-.78.47-.96.34-.26.71-.45,1.02-.36.45.09.74.14,1,.36.31.26.31.62.45.96-.09.36-.09.65,0,.94.09.36-.05.67,0,.91.05.25.05.74,0,.91-.11.38.02.67,0,.91.05.29-.02.71,0,.94.06.31-.05.62,0,.91.02.26-.02.67,0,.91.05.42-.09.62,0,.91-.11.34.06.69,0,.94.02.38-.02.56,0,.91-.02.25-.11.74,0,.91.09.26,0,.71,0,.91-.09.38-.06.65,0,.94-.11.34.09.56,0,.91.09.26.05.58,0,.91.09.4-.02.62,0,.94h0Z"/>
    <path class="cls-1" d="M119.51,158.79c-.02.29-.11.62-.09.94-.16.36-.06.67-.2.91-.05.38-.2.67-.26.89-.22.25-.22.67-.36.85-.06.25-.29.51-.47.82-.22.29-.31.6-.54.74-.2.36-.54.54-.67.69-.18.11-.4.36-.58.49-.22.18-.49.18-.62.4-.2.14-.51.26-.65.34-.31.18-.51.16-.69.26-.58.25-1,.34-1.45.36-.45.14-.91.18-1.5.11-.31.06-.78-.02-1.14,0-.47.02-.67-.02-1.14,0-.56.11-.96.02-1.5-.14-.18-.02-.54-.06-.74-.25-.31-.09-.38-.26-.58-.45-.25-.36-.54-.71-.51-1.07-.06-.26-.11-.87-.11-1.18.06-.54.06-.89,0-1.38-.09-.56-.09-.96,0-1.38-.06-.36,0-1.02,0-1.41-.05-.51-.02-.96,0-1.41,0-.36.09-.82,0-1.41.05-.56.02-.82,0-1.38-.06-.47-.11-.87,0-1.41-.11-.45-.02-.96,0-1.38-.05-.47-.02-.94.14-1.27.14-.47.2-.85.62-1.11.26-.2.45-.36.58-.38.18-.05.51-.18.69-.2.4,0,1-.09,1.41-.11.45-.09.85,0,1.14,0,.49.02.85-.02,1.16,0,.31-.09.49,0,.85.02.36,0,.47.14.85.09.2.11.65.14.82.18.26.18.47.22.82.22.16.14.42.22.76.31.34.18.45.31.74.42.26.06.51.42.69.49.09.25.45.45.6.6.2.18.36.36.54.67.14.22.25.38.42.71.09.34.16.47.34.76.11.25.16.47.26.78.06.36.11.58.18.82.11.38.16.54.14.82.11.51.02,1.11.09,1.65.05.36,0,.54-.05.94v.04ZM116.59,159.12c.14-.45.11-.87.06-1.27-.11-.42.05-.82-.06-1.36-.02-.36-.16-.96-.26-1.36-.14-.49-.4-.74-.51-1.22-.09-.25-.16-.38-.36-.56-.06-.16-.25-.31-.47-.51-.18-.22-.51-.29-.74-.54-.2-.11-.6-.22-.82-.34-.29-.16-.62-.09-.91-.2-.25.06-.69-.06-.91-.06-.58-.02-1.11.05-1.76,0-.51-.05-.89.06-1.02.26-.16.25-.22.65-.16.85-.06.42-.06.9,0,1.27.02.38-.09.87,0,1.3.06.38-.02.91,0,1.27,0,.51-.06.9,0,1.3-.02.45.06.96,0,1.3,0,.49.02.9,0,1.3-.05.4-.05.9,0,1.27.06.47.02.9,0,1.27s.05.65.22.9c.2.25.65.22.96.22.67.02,1.18,0,1.76,0,.42.11.67-.02,1.02-.09.29.02.51-.14.94-.29.26-.09.56-.29.9-.49.25-.22.6-.42.74-.67.38-.38.51-.6.71-1.05.09-.31.26-.78.45-1.2,0-.38.29-.9.25-1.27v-.02Z"/>
    <path class="cls-1" d="M133.81,165.21c.02.42-.06.65-.31.85-.25.16-.51.26-.8.36-.6.11-1.22.09-1.72,0-.65.05-1.22.02-1.7,0-.47.05-1.18.05-1.7,0-.51-.06-1.07.11-1.67,0-.38.02-.94-.02-1.5-.11-.31.02-.62-.14-.71-.26-.29-.06-.49-.26-.6-.45-.38-.29-.34-.69-.51-1.07-.02-.47-.02-.78-.11-1.18,0-.45-.06-.9,0-1.34-.09-.4.05-.82,0-1.34.02-.38-.05-.82,0-1.36-.11-.49,0-.8,0-1.36.06-.49,0-.94,0-1.34-.06-.42.02-.8,0-1.36,0-.34-.11-.82,0-1.34,0-.51-.02-1,0-1.36.05-.42-.05-.82.14-1.27.18-.36.26-.82.62-1.11.2-.16.29-.25.58-.38.16-.02.42-.2.69-.2.51-.05,1.02-.05,1.41-.11.56.11,1.1,0,1.54,0,.45.09.94,0,1.54,0,.58-.02.91.06,1.54,0,.42.06,1.14.05,1.58.02.25.02.69.11.8.36.14.25.31.54.31.82s-.02.6-.31.85c-.11.22-.51.4-.8.36-.49-.02-1-.09-1.41,0-.49.09-1.02-.05-1.38,0-.45-.02-.96-.05-1.38,0-.47.09-.94.05-1.38,0-.42-.02-.82.11-1.02.29-.18.2-.2.51-.2.85,0,.2.02.58.05.89-.02.38.02.62,0,1.21-.02.6,0,.85.22,1.02.26.2.6.26.78.22.65.05,1.31-.05,1.67,0,.56-.02.96-.02,1.38,0,.54.11.91,0,1.41.02.34-.02.62.22.8.36.25.31.31.49.31.82.02.45-.11.56-.31.85-.29.34-.42.38-.8.36-.49-.06-1.07.11-1.41,0-.38-.05-.91.09-1.38,0-.54.06-1.1.02-1.78,0-.58.05-.85.18-.89.56-.09.67.06,1.11,0,1.47-.06.42.02.78,0,1.05-.05.45-.02.65,0,1.05-.02.29.05.65.22.89.2.25.65.18.96.22.4.06,1.02.05,1.52,0,.56-.02,1,.09,1.54,0,.58.02.96.02,1.52,0,.54-.05,1,.06,1.56.02.36-.05.54.09.8.36.25.16.29.42.31.82v-.03Z"/>
  </g>
</svg>